<?xml version="1.0" standalone="no"?>
<!DOCTYPE svg PUBLIC "-//W3C//DTD SVG 20010904//EN"
 "http://www.w3.org/TR/2001/REC-SVG-20010904/DTD/svg10.dtd">
<svg version="1.0" xmlns="http://www.w3.org/2000/svg"
 width="399.000000pt" height="399.000000pt" viewBox="0 0 399.000000 399.000000"
 preserveAspectRatio="xMidYMid meet">
<metadata>
Created by potrace 1.14, written by Peter Selinger 2001-2017
</metadata>
<g transform="translate(0.000000,399.000000) scale(0.100000,-0.100000)"
fill="#000000" stroke="none">
<path d="M1885 3394 c-27 -14 -64 -40 -80 -58 -31 -33 -99 -61 -255 -106 -235
-67 -373 -132 -402 -189 -21 -42 -14 -68 55 -191 30 -52 57 -113 61 -135 12
-64 30 -88 123 -162 88 -70 146 -128 178 -176 14 -22 15 -34 6 -83 -6 -32 -11
-85 -11 -118 0 -77 -27 -214 -95 -487 -29 -119 -56 -252 -60 -295 l-7 -79 43
-21 c37 -18 47 -29 62 -70 9 -27 17 -74 17 -104 1 -135 30 -302 109 -645 21
-89 33 -179 40 -284 6 -84 12 -155 14 -158 7 -6 115 -21 210 -28 l87 -6 -6 43
c-12 71 -10 313 4 478 14 175 23 253 29 247 2 -2 19 -80 38 -173 20 -93 48
-198 63 -234 33 -79 34 -138 4 -234 -12 -37 -22 -80 -22 -95 l0 -27 78 7 c42
4 113 12 158 19 l81 12 29 81 29 82 -1 346 0 346 34 19 c18 10 52 40 75 68
l42 50 1 170 c1 94 3 257 5 361 1 105 -1 231 -5 280 -9 103 -8 106 60 124 57
15 69 32 51 68 -8 15 -35 116 -61 223 -79 325 -94 365 -150 400 -19 11 -80 36
-136 55 -56 19 -115 43 -133 53 -18 11 -44 22 -59 26 -36 8 -56 64 -34 98 21
33 76 195 76 224 0 14 -8 41 -19 62 -10 20 -26 61 -36 90 -19 59 -62 115 -106
138 -44 22 -126 17 -184 -12z m-111 -175 c-8 -41 -18 -86 -21 -101 -5 -27 -11
-27 -53 0 -2 2 2 8 10 13 11 8 7 9 -15 5 -57 -12 -190 -85 -258 -142 -64 -55
-66 -58 -47 -71 11 -8 30 -33 41 -56 18 -35 21 -51 15 -112 -8 -89 -23 -145
-39 -145 -47 0 -257 321 -257 393 0 63 103 121 340 192 85 26 187 59 225 74
39 15 71 27 72 26 2 -1 -4 -35 -13 -76z m306 -58 c0 -5 -9 -13 -20 -16 -11 -3
-20 -9 -20 -13 0 -11 20 -38 20 -28 0 5 6 4 13 -1 8 -6 20 -5 37 3 21 11 22
14 7 20 -10 3 -27 4 -39 1 -12 -4 -17 -2 -12 3 5 5 21 12 35 15 22 5 30 1 49
-25 50 -70 31 -183 -43 -266 -36 -39 -49 -47 -90 -51 -47 -6 -48 -5 -106 53
-42 42 -62 71 -70 102 -13 45 -7 97 12 123 14 17 58 21 70 5 5 -8 10 -7 15 2
5 7 16 10 28 6 16 -6 17 -5 6 7 -7 7 -30 13 -55 12 -37 -1 -39 0 -19 10 16 7
32 7 57 0 21 -7 35 -7 35 -2 0 5 -13 12 -30 16 -33 6 -39 19 -12 26 33 9 132
7 132 -2z m-362 -71 c18 -11 37 -32 43 -48 6 -15 32 -59 60 -99 67 -97 67
-123 -3 -163 -31 -17 -59 -27 -68 -23 -8 4 -60 22 -115 40 -68 23 -110 44
-132 65 -17 16 -48 40 -69 53 l-38 23 30 27 c50 47 87 72 159 109 81 42 89 43
133 16z m292 -300 c41 0 55 5 84 30 l35 31 19 -45 c12 -25 29 -47 41 -51 27
-8 26 -17 -5 -54 -30 -36 -44 -39 -44 -11 0 11 -5 20 -11 20 -7 0 -9 -10 -7
-25 4 -20 1 -25 -16 -27 -71 -5 -160 22 -176 52 -6 11 -16 17 -24 14 -28 -11
-39 22 -25 75 l13 50 33 -30 c28 -24 43 -29 83 -29z m586 -867 c11 -59 12
-833 2 -833 -5 0 -8 -8 -8 -17 0 -15 -2 -16 -10 -3 -7 11 -11 9 -19 -12 -5
-14 -13 -42 -16 -62 -5 -23 -17 -43 -34 -54 -46 -33 -57 -36 -35 -11 31 35 60
130 35 115 -4 -3 -11 -23 -15 -44 -7 -46 -32 -74 -42 -48 -4 9 -1 36 6 60 6
24 10 52 8 63 -1 12 6 30 16 42 19 21 19 22 -7 49 -32 34 -33 41 -7 92 39 76
35 171 -25 575 -8 49 -12 92 -10 94 9 9 111 40 131 41 18 0 23 -8 30 -47z
m-120 -473 c6 -107 4 -131 -11 -165 l-17 -40 -14 55 c-9 38 -10 66 -4 90 5 19
13 87 17 150 8 138 18 108 29 -90z"/>
<path d="M1350 2965 c-7 -9 -9 -22 -5 -32 7 -17 8 -16 13 2 2 11 9 26 14 33 7
8 7 12 0 12 -5 0 -15 -7 -22 -15z"/>
<path d="M2000 3050 c0 -78 14 -78 18 0 2 37 -1 60 -7 60 -7 0 -11 -24 -11
-60z"/>
<path d="M1958 2943 c-10 -2 -18 -8 -18 -13 0 -15 52 -50 76 -50 23 0 84 44
84 61 0 9 -110 11 -142 2z m108 -18 c-21 -16 -63 -19 -93 -7 -13 5 -6 9 27 13
25 3 54 7 65 7 20 1 20 1 1 -13z"/>
<path d="M1979 2720 c30 -25 43 -25 72 1 21 18 21 20 4 14 -40 -15 -63 -17
-69 -6 -4 6 -13 11 -19 11 -7 -1 -1 -10 12 -20z"/>
<path d="M2510 1900 c0 -14 -3 -36 -7 -49 -4 -16 -3 -22 5 -17 16 10 26 66 13
79 -8 8 -11 4 -11 -13z"/>
<path d="M2572 1299 c-1 -15 -5 -42 -8 -60 -5 -26 -4 -31 5 -23 8 7 11 30 8
60 -2 27 -4 37 -5 23z"/>
</g>
</svg>
